# xmcd
#
# Track frame offsets: 
#        150
#        14287
#        24900
#        35880
#        49965
#        63847
#        77887
#        91520
#        103170
#        116025
#        128810
#        141582
#        154905
#        167235
#        177842
#        189777
#        201850
#        214270
#        224432
#        235325
#        248447
#        260607
#
# Disc length: 3666 seconds
#
# Revision: 0
# Processed by: cddbd v1.5.2PL0 Copyright (c) Steve Scherf et al.
# Submitted via: ExactAudioCopyFreeDBPlugin 1.0
#
DISCID=3b0e5016
DTITLE=Otis Rush - West Chicago Blues
DYEAR=2012
DGENRE=Blues
TTITLE0=I Can't Quit You Baby
TTITLE1=Sit Down Baby
TTITLE2=Violent Love
TTITLE3=My Love Will Never Die
TTITLE4=Groaning The Blues
TTITLE5=If You Were Mine
TTITLE6=Love That Woman
TTITLE7=Jump Sister Bessie
TTITLE8=Three Times A Fool
TTITLE9=She's A Good 'Un
TTITLE10=It Takes Time
TTITLE11=Checking On My Baby
TTITLE12=Double Trouble
TTITLE13=Keep On Loving Me Baby
TTITLE14=All Your Love (I Miss Loving)
TTITLE15=My Baby's A Good 'Un
TTITLE16=So Close
TTITLE17=I Can't Stop
TTITLE18=I'm Satisfied
TTITLE19=All Your Love (I Miss Loving)
TTITLE20=You Know My Name
TTITLE21=So Many Roads
EXTD=
EXTT0=
EXTT1=
EXTT2=
EXTT3=
EXTT4=
EXTT5=
EXTT6=
EXTT7=
EXTT8=
EXTT9=
EXTT10=
EXTT11=
EXTT12=
EXTT13=
EXTT14=
EXTT15=
EXTT16=
EXTT17=
EXTT18=
EXTT19=
EXTT20=
EXTT21=
PLAYORDER=
